<svg width="37" height="37" viewBox="0 0 37 37" fill="none" xmlns="http://www.w3.org/2000/svg">
<path d="M27.75 30.8333C27.75 28.3801 26.7754 26.0273 25.0407 24.2926C23.306 22.5579 20.9533 21.5833 18.5 21.5833C16.0467 21.5833 13.694 22.5579 11.9593 24.2926C10.2246 26.0273 9.25 28.3801 9.25 30.8333" stroke="white" stroke-width="2" stroke-linecap="round" stroke-linejoin="round"/>
<path d="M18.5007 21.5833C21.9064 21.5833 24.6673 18.8224 24.6673 15.4167C24.6673 12.0109 21.9064 9.25 18.5007 9.25C15.0949 9.25 12.334 12.0109 12.334 15.4167C12.334 18.8224 15.0949 21.5833 18.5007 21.5833Z" stroke="white" stroke-width="2" stroke-linecap="round" stroke-linejoin="round"/>
<path d="M18.5007 33.9168C27.015 33.9168 33.9173 27.0146 33.9173 18.5002C33.9173 9.98577 27.015 3.0835 18.5007 3.0835C9.98626 3.0835 3.08398 9.98577 3.08398 18.5002C3.08398 27.0146 9.98626 33.9168 18.5007 33.9168Z" stroke="white" stroke-width="2" stroke-linecap="round" stroke-linejoin="round"/>
</svg>
