<svg width="49" height="49" viewBox="0 0 49 49" fill="none" xmlns="http://www.w3.org/2000/svg">
<path d="M24.5 49C38.031 49 49 38.031 49 24.5C49 10.969 38.031 0 24.5 0C10.969 0 0 10.969 0 24.5C0 38.031 10.969 49 24.5 49Z" fill="url(#paint0_linear_1_947)"/>
<path d="M36.7265 14.3654C36.9446 12.9558 35.6044 11.8432 34.3511 12.3935L9.38843 23.3534C8.48965 23.748 8.5554 25.1095 9.48757 25.4063L14.6354 27.0457C15.618 27.3586 16.6819 27.1967 17.5399 26.604L29.1462 18.5855C29.4962 18.3437 29.8777 18.8414 29.5787 19.1495L21.2242 27.763C20.4137 28.5987 20.5746 30.0146 21.5495 30.6259L30.9032 36.4915C31.9524 37.1493 33.302 36.4886 33.4981 35.2207L36.7265 14.3654Z" fill="white"/>
<defs>
<linearGradient id="paint0_linear_1_947" x1="24.5" y1="0" x2="24.5" y2="49" gradientUnits="userSpaceOnUse">
<stop stop-color="#37BBFE"/>
<stop offset="1" stop-color="#007DBB"/>
</linearGradient>
</defs>
</svg>
