<svg width="49" height="49" viewBox="0 0 49 49" fill="none" xmlns="http://www.w3.org/2000/svg">
<g clip-path="url(#clip0_217_1212)">
<path d="M41.65 0H7.35C3.29071 0 0 3.29071 0 7.35V41.65C0 45.7093 3.29071 49 7.35 49H41.65C45.7093 49 49 45.7093 49 41.65V7.35C49 3.29071 45.7093 0 41.65 0Z" fill="#25D366"/>
<path d="M11.7717 37.6113L13.1115 31.3906C11.3894 28.6744 10.7176 25.4232 11.2222 22.2469C11.7267 19.0706 13.3729 16.1876 15.8519 14.1387C18.331 12.0898 21.4724 11.0159 24.6869 11.1185C27.9014 11.2211 30.9679 12.4931 33.3113 14.6958C35.6546 16.8986 37.1137 19.8807 37.4147 23.0827C37.7157 26.2847 36.838 29.4865 34.9463 32.0874C33.0545 34.6883 30.2787 36.5095 27.1397 37.2094C24.0006 37.9092 20.7141 37.4396 17.8967 35.8887L11.7717 37.6113Z" fill="#25D366" stroke="white" stroke-width="2"/>
<path d="M29.4768 26.127C29.1897 25.9356 28.9026 25.8399 28.6155 26.2227L27.467 27.7539C27.1799 27.9453 26.9885 28.041 26.6057 27.8496C25.1702 27.084 23.1604 26.2227 21.4377 23.3516C21.342 22.9688 21.5334 22.7774 21.7248 22.586L22.5862 21.2461C22.7776 21.0547 22.6819 20.8633 22.5862 20.6719L21.4377 17.8965C21.1506 17.1309 20.8635 17.2266 20.5764 17.2266H19.8108C19.6194 17.2266 19.2366 17.3223 18.8537 17.7051C16.7483 19.8106 17.6096 22.7774 19.1409 24.6914C19.428 25.0742 21.342 28.5195 25.4573 30.3379C28.5198 31.6777 29.1897 31.4863 30.051 31.2949C31.1037 31.1992 32.1565 30.3379 32.635 29.4766C32.7307 29.1895 33.2092 27.9453 32.8264 27.7539" fill="white"/>
</g>
<defs>
<clipPath id="clip0_217_1212">
<rect width="49" height="49" rx="24.5" fill="white"/>
</clipPath>
</defs>
</svg>
